<svg xmlns="http://www.w3.org/2000/svg" viewBox="0 0 122.65 37.54" aria-label="DISKY"><g fill="#f4f7fb" fill-rule="evenodd"><path d="M1.79,5.11 1.75,5.17 1.77,28.84 4.09,28.85 4.23,28.82 8.21,22.89 8.21,11.10 8.25,11.05 17.31,11.06 18.46,11.23 19.21,11.47 19.91,11.82 20.58,12.29 21.22,12.93 21.69,13.61 22.04,14.31 22.33,15.18 22.51,16.21 22.55,17.00 22.50,17.89 22.33,18.87 22.10,19.59 21.75,20.32 21.21,21.08 20.63,21.66 19.97,22.14 19.27,22.49 18.23,22.79 17.37,22.88 8.28,22.91 8.28,28.85 17.59,28.88 19.13,28.78 20.27,28.60 21.19,28.37 22.06,28.07 22.87,27.72 23.74,27.25 25.04,26.33 25.69,25.74 26.34,25.04 27.04,24.10 27.56,23.20 28.03,22.19 28.50,20.82 28.79,19.51 28.96,18.14 29.00,16.52 28.96,15.65 28.83,14.59 28.55,13.28 28.14,12.02 27.74,11.11 27.09,9.99 26.46,9.11 25.64,8.22 24.97,7.63 23.63,6.71 22.31,6.06 20.78,5.54 18.93,5.19 17.70,5.11 1.79,5.11Z"/><path d="M32.91,5.11 32.81,5.17 29.32,10.40 29.32,28.79 29.36,28.86 35.73,28.86 35.78,28.79 35.78,5.17 35.73,5.10 32.91,5.11Z"/><path d="M44.51,5.11 43.08,5.25 42.27,5.42 41.74,5.61 39.84,6.48 39.06,7.04 38.36,7.70 37.83,8.33 37.41,8.94 36.95,9.78 36.71,10.36 36.42,11.26 36.25,12.08 36.11,13.56 36.13,15.01 36.25,15.96 36.48,16.97 36.82,17.95 37.29,18.90 37.81,19.68 38.41,20.39 39.11,21.03 39.76,21.50 40.82,22.09 41.69,22.43 42.55,22.67 44.06,22.90 47.88,22.95 44.03,28.86 58.99,28.86 60.05,28.77 61.48,28.47 63.46,27.62 64.18,27.14 64.88,26.56 65.42,25.98 65.88,25.38 66.59,24.15 67.05,22.92 67.34,21.50 67.41,20.74 67.42,19.48 67.28,18.00 67.11,17.22 66.87,16.46 66.58,15.74 66.23,15.07 65.47,13.98 64.47,12.97 63.41,12.24 62.29,11.69 61.23,11.35 59.94,11.11 58.93,11.04 55.76,11.01 59.60,5.11 44.51,5.11ZM45.11,11.07 55.69,11.06 51.82,16.97 58.12,16.98 58.77,17.05 59.46,17.28 59.94,17.58 60.37,18.00 60.65,18.42 60.89,19.03 61.00,19.73 60.95,20.57 60.77,21.22 60.54,21.66 60.05,22.22 59.58,22.55 58.99,22.79 58.37,22.90 47.98,22.91 51.82,17.00 45.15,16.97 44.76,16.91 44.20,16.74 43.84,16.56 43.45,16.27 43.16,15.96 42.87,15.54 42.59,14.76 42.52,13.84 42.69,12.91 42.87,12.49 43.11,12.13 43.67,11.59 44.33,11.24 45.11,11.07Z"/><path d="M72.27,5.11 72.17,5.17 68.68,10.40 68.68,28.79 68.72,28.86 75.09,28.86 75.14,28.79 75.14,5.17 75.09,5.10 72.27,5.11Z"/><path d="M86.38,5.10 75.22,21.36 81.18,21.38 86.36,28.88 93.99,28.89 94.00,28.85 85.74,16.91 94.02,5.11 86.38,5.10Z"/><path d="M94.18,5.11 94.16,5.14 94.27,5.28 104.29,18.36 104.33,28.89 110.73,28.90 110.79,18.34 120.90,5.11 112.88,5.13 107.55,12.48 102.18,5.13 94.18,5.11Z"/></g></svg>